<svg width="223" height="189" viewBox="0 0 223 189" fill="none" xmlns="http://www.w3.org/2000/svg">
<path d="M92.1881 81.4575C106.92 64.4595 100.347 36.3559 84.9355 79.6444C73.2258 117.191 31.2242 203.813 13.5436 185.486C-41.0115 128.935 103.207 47.6452 51.4645 140.79C49.371 144.558 44.19 145.716 44.8302 141.453C46.5336 130.11 66.1391 107.57 68.0194 122.039C68.135 122.928 69.253 123.404 69.8795 122.763L77.683 114.774C76.4743 116.738 74.4194 120.485 75.8699 119.76C77.3204 119.034 84.9355 109.108 86.2954 110.467C85.8421 111.601 85.2075 113.776 86.2954 113.414C87.3832 113.051 95.6632 106.01 99.6672 102.535V104.575L113.492 95.2825V95.2825C114.552 96.21 116.113 96.2785 117.251 95.4475L132.613 84.2208C132.767 84.1085 132.983 84.2183 132.983 84.4086V84.4086C132.983 84.6919 133.303 84.8571 133.534 84.6933L150.888 72.3918L169.019 58.1134M169.019 58.1134C167.811 62.1174 167.388 67.1791 175.365 55.3938C178.74 50.4076 174.459 52.2963 169.019 58.1134Z" stroke="#FEE040" stroke-width="1.5"/>
<path d="M100.574 78.2847L61.1382 169.394C72.6886 144.368 87.4689 132.262 98.6204 109.451C99.093 108.485 97.9973 107.693 97.2547 108.472C82.2652 124.185 72.6619 150.82 92.188 152.623C103 153.621 114.26 134.761 120.412 116.739C123.831 106.723 115.671 98.3104 108.163 105.77C103.03 110.871 97.7435 119.091 93.4397 131.9C93.1055 132.894 94.3221 133.628 95.0486 132.872L108.506 118.853M108.506 118.853C107.146 123.084 104.454 130.998 103.293 130.185M108.506 118.853C106.391 122.177 98.7606 127.012 103.293 130.185M108.506 118.853L103.293 130.185M108.506 118.853C114.323 112.13 123.238 103.26 112.359 121.573L123.144 111.572C123.784 110.979 124.824 111.433 124.824 112.305V113.414C133.21 105.255 138.74 103.26 143.636 97.0959C142.502 97.5491 139.511 98.773 136.61 100.042" stroke="#FEE040" stroke-width="1.5"/>
<path d="M120.291 86.8969C160.634 50.1812 141.596 -7.83901 46.6332 108.201C16.9574 144.464 19.8896 225.465 108.733 147.863C119.763 138.118 142.366 117.176 144.542 111.374C146.718 105.572 134.872 116.662 128.677 122.933C130.264 124.67 142.276 119.488 174.912 79.4177C175.667 78.209 174.867 76.5167 165.62 79.4177C154.061 83.044 165.166 87.8034 183.524 61.5131L170.379 65.1394C180.894 65.1394 185.564 49.2745 189.417 41.5687C193.935 32.5329 191.457 20.0378 221.827 1" stroke="#FEE040" stroke-width="1.5"/>
</svg>
